<svg version="1.0" xmlns="http://www.w3.org/2000/svg"
 width="512.000000pt" height="512.000000pt" viewBox="0 0 512.000000 512.000000"
 preserveAspectRatio="xMidYMid meet">

<g transform="translate(0.000000,512.000000) scale(0.100000,-0.100000)"
fill="#333" stroke="none">
<path d="M3313 5110 c-23 -5 -56 -16 -75 -26 -18 -9 -179 -162 -358 -339 -336
-333 -1870 -1856 -2483 -2465 -407 -404 -402 -397 -395 -543 3 -63 10 -103 23
-127 21 -42 348 -376 387 -396 45 -23 98 -17 148 17 25 16 63 39 85 51 228
120 514 22 630 -216 77 -156 62 -326 -40 -476 -25 -36 -45 -74 -46 -85 -7 -68
-3 -74 168 -247 93 -94 187 -183 210 -199 56 -39 144 -61 208 -53 107 13 116
21 531 437 355 355 392 396 397 431 7 43 -12 89 -41 104 -32 17 -83 22 -105
11 -12 -6 -193 -182 -402 -390 -351 -350 -383 -379 -415 -379 -30 0 -48 15
-169 134 l-135 134 36 79 c52 115 63 163 63 298 0 98 -4 134 -23 195 -36 115
-86 195 -176 286 -132 131 -265 191 -451 201 -119 7 -224 -16 -334 -72 l-68
-34 -137 138 c-121 122 -136 141 -136 172 0 32 70 104 1207 1235 981 976 1211
1200 1225 1193 9 -5 35 -9 58 -9 34 0 47 6 72 32 24 26 29 39 25 67 -2 20 -7
43 -11 51 -4 11 75 96 277 298 259 258 286 282 317 282 30 0 49 -15 171 -136
l138 -137 -29 -57 c-48 -96 -64 -171 -64 -310 0 -111 3 -134 28 -205 41 -118
80 -181 170 -271 91 -90 171 -140 286 -176 63 -19 96 -23 200 -22 136 1 201
15 301 65 l56 28 137 -138 c121 -122 136 -141 136 -171 0 -31 -24 -58 -282
-316 l-281 -283 -28 15 c-15 8 -37 14 -49 14 -29 0 -77 -27 -90 -49 -13 -26
-13 -87 1 -112 8 -16 7 -26 -5 -44 -9 -14 -16 -45 -16 -70 0 -36 5 -51 25 -69
31 -29 90 -38 125 -20 14 7 194 183 401 391 429 431 415 411 407 560 -3 58
-11 100 -23 123 -21 42 -348 375 -387 396 -47 24 -98 18 -155 -21 -198 -133
-443 -113 -607 51 -164 164 -183 404 -49 609 18 28 33 59 34 70 7 68 3 74
-168 247 -190 192 -227 222 -309 243 -64 16 -78 17 -141 5z"/>
<path d="M2923 4071 c-33 -21 -41 -37 -45 -86 -2 -42 15 -70 91 -148 78 -80
105 -97 161 -97 74 0 122 77 89 143 -16 32 -159 176 -191 193 -37 19 -67 18
-105 -5z"/>
<path d="M3365 3648 c-53 -29 -71 -99 -41 -156 17 -31 138 -150 178 -175 34
-21 60 -21 98 -2 55 28 75 86 49 138 -16 32 -159 176 -191 193 -32 17 -65 18
-93 2z"/>
<path d="M3788 3212 c-47 -29 -62 -96 -34 -150 17 -31 138 -150 178 -175 93
-57 195 43 144 141 -8 15 -52 64 -99 110 -61 59 -92 82 -110 82 -14 0 -31 2
-39 4 -7 2 -25 -3 -40 -12z"/>
<path d="M3855 2249 c-378 -45 -723 -295 -885 -642 -236 -506 -67 -1114 397
-1423 85 -56 231 -122 338 -151 93 -26 113 -28 290 -28 177 0 197 2 290 28
392 108 693 410 802 803 26 92 28 112 28 289 0 176 -2 197 -28 290 -114 418
-447 733 -867 819 -99 20 -265 27 -365 15z m390 -244 c379 -112 639 -440 661
-835 31 -529 -427 -987 -956 -956 -204 11 -369 75 -533 205 -138 110 -248 275
-303 456 -24 80 -27 106 -28 245 -1 134 2 166 22 235 103 355 350 588 713 670
103 24 311 14 424 -20z"/>
<path d="M3964 1739 c-17 -5 -39 -18 -50 -30 -17 -19 -19 -41 -22 -250 l-3
-229 -224 0 c-218 0 -225 -1 -250 -22 -47 -42 -50 -123 -4 -164 19 -17 41 -19
250 -22 l228 -3 3 -229 c3 -219 4 -230 24 -251 13 -13 39 -23 66 -26 40 -5 49
-2 79 25 l34 30 3 226 3 225 225 3 226 3 29 33 c46 51 31 140 -27 162 -14 6
-121 10 -239 10 l-214 0 -3 230 c-3 215 -4 231 -23 250 -27 27 -73 39 -111 29z"/>
</g>
</svg>
